#!OML:ASF H:\Male1\Project 1\Capture day 1\Session 1\Male1.ASF
:FULLY-SPECIFIED
:DEGREES
664
root 41.2877 14.7458 0.952915 894.799 20.667 -921.659
lowerback 4.13113 1.66918 -21.1337
upperback 3.46234 2.78151 -6.32061
thorax 0.996191 1.55308 4.82077
lowerneck 2.829 10.7868 17.1625
upperneck 6.15607 15.6517 -11.9262
head 3.65852 8.01368 -5.70173
rclavicle -4.8901e-014 -4.49253e-014
rhumerus -37.7586 -9.34405 -85.5723
rradius 31.5965
rwrist -20.3443
rhand -25.9295 -3.53974
rfingers 7.12502
rthumb 0.613843 -33.5186
lclavicle -4.8901e-014 -4.49253e-014
lhumerus -22.0889 -3.22776 86.796
lradius 41.6357
lwrist 9.31531
lhand -27.3878 9.73132
lfingers 7.12502
lthumb -0.794604 39.7096
rfemur -31.0116 4.22354 -9.0081
rtibia 51.0835
rfoot -24.208 -14.9574
rtoes -45.6484
lfemur -12.957 -23.4055 -38.7465
ltibia 37.2821
lfoot -17.9885 8.18065
ltoes -9.99665
665
root 41.4687 14.7738 0.965386 895.466 18.6341 -921.959
lowerback 4.17003 1.72281 -21.5017
upperback 3.60122 2.97983 -6.6635
thorax 1.11439 1.67995 4.63226
lowerneck 2.65876 10.6528 17.5751
upperneck 6.07794 15.4441 -12.0212
head 3.672 7.90997 -5.79997
rclavicle 4.00054e-014 8.34896e-015
rhumerus -37.3811 -9.79908 -86.01
rradius 31.4921
rwrist -20.2937
rhand -27.1335 -3.48028
rfingers 7.12502
rthumb -0.549016 -33.4593
lclavicle 4.00054e-014 8.34896e-015
lhumerus -21.6024 -2.12122 86.323
lradius 39.8872
lwrist 9.10326
lhand -27.9284 10.9193
lfingers 7.12502
lthumb -1.31681 40.895
rfemur -30.2943 4.53634 -8.93122
rtibia 51.2543
rfoot -26.3361 -15.038
rtoes -39.9284
lfemur -13.5779 -22.7555 -39.0891
ltibia 37.9178
lfoot -16.1853 10.3956
ltoes -15.2212
666
root 41.6479 14.7955 0.977058 895.759 16.4503 -922.409
lowerback 4.73993 1.59872 -22.767
upperback 3.69442 2.71051 -6.57282
thorax 0.955692 1.5682 5.36887
lowerneck 2.84792 10.7451 17.7301
upperneck 5.96625 15.6459 -12.5062
head 3.68864 8.01152 -5.96658
rclavicle 1.93815e-014 -1.57835e-013
rhumerus -37.1478 -8.73292 -86.3494
rradius 31.5369
rwrist -20.5984
rhand -28.1965 -3.10587
rfingers 7.12502
rthumb -1.57567 -33.0798
lclavicle 1.93815e-014 -1.57835e-013
lhumerus -21.5887 -0.66151 86.2098
lradius 38.3943
lwrist 10.0096
lhand -29.3826 13.6283
lfingers 7.12502
lthumb -2.72119 43.5907
rfemur -28.9922 4.48543 -8.93978
rtibia 50.9138
rfoot -27.3552 -16.164
rtoes -37.9871
lfemur -13.8213 -21.8696 -39.7933
ltibia 38.6217
lfoot -15.061 12.7729
ltoes -19.1316
667
root 41.8236 14.8206 0.976108 896.708 14.2349 -922.728
lowerback 4.74681 1.67949 -23.2767
upperback 3.66398 2.85645 -6.60575
thorax 0.887004 1.66612 5.58164
lowerneck 2.57198 10.4378 17.5906
upperneck 6.05932 15.2157 -12.7157
head 3.70083 7.78795 -6.03497
rclavicle 6.85807e-015 -8.52786e-014
rhumerus -37.3491 -8.50512 -86.2863
rradius 32.0101
rwrist -21.2077
rhand -28.7806 -2.82858
rfingers 7.12502
rthumb -2.13977 -32.7976
lclavicle 6.85807e-015 -8.52786e-014
lhumerus -21.5152 0.150963 86.2811
lradius 36.5355
lwrist 8.97685
lhand -28.1125 17.5538
lfingers 7.12502
lthumb -1.49452 47.5283
rfemur -27.8873 4.04935 -8.85187
rtibia 49.7108
rfoot -26.6846 -18.8079
rtoes -40.4041
lfemur -14.931 -20.943 -40.2309
ltibia 39.7752
lfoot -15.109 14.8206
ltoes -20.3499
668
root 41.9707 14.9091 0.956438 897.37 12.4328 -917.588
lowerback 5.95094 2.20351 -17.6695
upperback 3.97165 3.19568 -5.85176
thorax 0.474621 1.81193 3.42432
lowerneck 2.60111 10.0185 18.6588
upperneck 6.02482 14.6895 -13.0337
head 3.70795 7.54827 -6.34255
rclavicle 4.02539e-015 3.45885e-014
rhumerus -37.8633 -9.01087 -86.8439
rradius 32.6433
rwrist -21.5881
rhand -29.0746 -2.51074
rfingers 7.12502
rthumb -2.42379 -32.4767
lclavicle 4.02539e-015 3.45885e-014
lhumerus -21.6328 -0.0321838 85.5702
lradius 34.6664
lwrist 8.08571
lhand -27.2694 18.2241
lfingers 7.12502
lthumb -0.68031 48.2027
rfemur -24.0312 5.76921 -2.42153
rtibia 46.7272
rfoot -26.8761 -21.881
rtoes -39.4113
lfemur -14.8049 -19.5791 -35.8094
ltibia 42.0566
lfoot -16.8273 16.8064
ltoes -20.2933
669
root 42.0927 14.9932 0.928956 897.683 10.7429 -909.222
lowerback 7.49683 2.23813 -8.97787
upperback 4.64827 3.07065 -3.67143
thorax 0.434631 1.67864 0.992263
lowerneck 2.53454 10.0722 18.1423
upperneck 5.71024 14.72 -13.1517
head 3.60029 7.54198 -6.30325
rclavicle 3.03147e-015 8.74653e-014
rhumerus -37.792 -7.76043 -87.1047
rradius 33.207
rwrist -22.2647
rhand -28.9106 -2.16269
rfingers 7.12502
rthumb -2.26542 -32.1304
lclavicle 3.03147e-015 8.74653e-014
lhumerus -21.4349 2.27163 85.093
lradius 32.6972
lwrist 5.56037
lhand -26.4436 18.1168
lfingers 7.12502
lthumb 0.117318 48.0965
rfemur -19.1095 7.59594 7.78191
rtibia 43.1782
rfoot -27.9576 -24.3771
rtoes -36.0575
lfemur -14.0488 -17.8456 -28.0477
ltibia 44.4226
lfoot -19.5784 17.4972
ltoes -17.3117
670
root 42.2065 15.026 0.939064 898.496 7.63398 -898.661
lowerback 8.80343 1.18627 1.76424
upperback 5.01234 2.14739 -0.571534
thorax 0.340074 1.30596 -1.75522
lowerneck 2.60308 10.2341 16.9591
upperneck 5.17913 14.87 -13.0422
head 3.35755 7.58943 -6.09727
rclavicle 1.963e-014 -1.2921e-014
rhumerus -37.596 -6.10366 -87.0855
rradius 33.7208
rwrist -23.1502
rhand -28.3986 -1.6503
rfingers 7.12502
rthumb -1.7709 -31.6227
lclavicle 1.963e-014 -1.2921e-014
lhumerus -21.3501 4.6045 84.9095
lradius 31.003
lwrist 2.89822
lhand -25.6913 18.0072
lfingers 7.12502
lthumb 0.843857 47.9853
rfemur -14.8269 7.48729 20.2154
rtibia 39.2767
rfoot -29.2621 -26.5106
rtoes -31.319
lfemur -14.9938 -16.1582 -16.9743
ltibia 47.1387
lfoot -22.4396 15.5095
ltoes -11.6921
671
root 42.3429 15.0321 0.911079 898.488 6.18116 -898.72
lowerback 8.35542 1.58884 2.04371
upperback 5.15597 2.71352 -0.768862
thorax 0.783009 1.61251 -2.1365
lowerneck 2.4189 10.1429 16.8297
upperneck 4.93287 14.2657 -12.7397
head 3.20367 7.2169 -6.02915
rclavicle 1.4561e-014 5.96354e-016
rhumerus -37.6914 -6.62397 -87.0887
rradius 34.1824
rwrist -23.6432
rhand -27.7711 -1.07559
rfingers 7.12502
rthumb -1.16486 -31.0522
lclavicle 1.4561e-014 5.96354e-016
lhumerus -21.4909 5.78729 84.2606
lradius 29.3475
lwrist -2.76193
lhand -23.5015 16.4357
lfingers 7.12502
lthumb 2.95878 46.395
rfemur -13.2173 7.20933 20.7552
rtibia 36.7992
rfoot -30.5828 -26.1505
rtoes -24.8549
lfemur -15.7613 -13.3168 -17.2609
ltibia 48.4695
lfoot -24.6295 14.9796
ltoes -8.19248
672
root 42.477 15.0389 0.912955 898.718 3.79652 -898.673
lowerback 7.95777 1.56709 2.39104
upperback 5.29226 2.72039 -0.894839
thorax 1.16643 1.64173 -2.4402
lowerneck 2.02729 9.89588 16.5834
upperneck 4.6125 13.8595 -12.5804
head 3.08199 7.00356 -5.96281
rclavicle 2.9271e-014 -7.35503e-015
rhumerus -37.4304 -6.86341 -87.1672
rradius 34.4526
rwrist -24.0219
rhand -27.1126 -0.622635
rfingers 7.12502
rthumb -0.52886 -30.6017
lclavicle 2.9271e-014 -7.35503e-015
lhumerus -21.248 5.30628 83.9163
lradius 27.8981
lwrist -4.32489
lhand -26.4553 8.13203
lfingers 7.12502
lthumb 0.106039 38.1117
rfemur -12.3872 6.73279 21.3727
rtibia 35.3853
rfoot -32.6772 -26.3378
rtoes -18.3224
lfemur -16.859 -11.5951 -17.2632
ltibia 49.2858
lfoot -27.3101 12.213
ltoes 4.13487
673
root 42.6002 15.039 0.903019 898.618 1.73037 -899.116
lowerback 8.05599 1.55687 2.01673
upperback 5.2486 2.69483 -0.980061
thorax 1.05198 1.62291 -2.32227
lowerneck 1.95366 9.8211 16.1729
upperneck 4.44769 13.7216 -12.2614
head 2.9731 6.93096 -5.81467
rclavicle -6.5102e-015 -4.77083e-015
rhumerus -37.6427 -6.39105 -87.1569
rradius 34.7379
rwrist -24.6029
rhand -26.577 -0.280636
rfingers 7.12502
rthumb -0.0115267 -30.2604
lclavicle -6.5102e-015 -4.77083e-015
lhumerus -21.985 6.99435 83.3371
lradius 26.9379
lwrist -7.77414
lhand -25.3601 -9.71944
lfingers 7.12502
lthumb 1.16375 20.2571
rfemur -11.9748 6.0223 21.4386
rtibia 35.4472
rfoot -33.9028 -26.987
rtoes -16.3782
lfemur -16.9832 -8.93663 -18.2615
ltibia 49.1978
lfoot -27.6028 13.6206
ltoes 0.279692
674
root 42.7137 15.0375 0.89373 898.628 -0.287448 -899.177
lowerback 8.05555 2.16571 2.1542
upperback 5.18542 2.55733 -0.930661
thorax 0.997221 1.15005 -2.34656
lowerneck 1.75374 9.76659 15.7426
upperneck 4.5277 13.6017 -11.9018
head 2.95725 6.86365 -5.63786
rclavicle 6.36111e-015 1.13307e-014
rhumerus -37.8625 -6.00463 -87.0702
rradius 34.9972
rwrist -25.146
rhand -26.1957 0.0367433
rfingers 7.12502
rthumb 0.356755 -29.9427
lclavicle 6.36111e-015 1.13307e-014
lhumerus -22.2446 7.38632 82.7656
lradius 25.529
lwrist -10.1098
lhand -24.278 -9.37446
lfingers 7.12502
lthumb 2.20884 20.5939
rfemur -11.7169 5.34121 21.8868
rtibia 35.5124
rfoot -34.8677 -27.8041
rtoes -14.8672
lfemur -17.2244 -5.8501 -18.7818
ltibia 49.2253
lfoot -28.0663 14.7174
ltoes -2.18954
675
root 42.8198 15.0358 0.884473 898.55 -2.28085 -898.933
lowerback 8.0679 2.0727 2.38931
upperback 5.16645 2.46197 -0.810652
thorax 0.971122 1.11117 -2.34889
lowerneck 1.53511 9.66552 15.3879
upperneck 4.62699 13.4315 -11.7561
head 2.96439 6.76864 -5.54063
rclavicle 4.40308e-014 -1.37161e-014
rhumerus -37.9602 -5.56654 -86.9858
rradius 35.1619
rwrist -25.4704
rhand -25.8569 0.353336
rfingers 7.12502
rthumb 0.683948 -29.6253
lclavicle 4.40308e-014 -1.37161e-014
lhumerus -22.4076 7.28056 82.3289
lradius 24.0944
lwrist -10.6241
lhand -23.8115 -8.33838
lfingers 7.12502
lthumb 2.65944 21.6248
rfemur -11.4889 4.83128 22.6419
rtibia 35.7736
rfoot -36.7289 -28.0168
rtoes -11.5606
lfemur -17.3825 -2.54745 -18.859
ltibia 49.3103
lfoot -28.9268 14.8425
ltoes -0.401556
676
root 42.9191 15.0345 0.866945 898.374 -4.26203 -898.983
lowerback 8.03512 1.98482 2.27752
upperback 5.21832 2.3405 -0.776487
thorax 1.02889 1.05 -2.24098
lowerneck 1.35721 9.46138 15.2272
upperneck 4.68406 13.1388 -11.8154
head 2.96349 6.61388 -5.54763
rclavicle -1.89342e-014 3.18055e-015
rhumerus -38.0309 -5.2034 -86.9409
rradius 35.3147
rwrist -25.7263
rhand -25.5919 0.500607
rfingers 7.12502
rthumb 0.939894 -29.4771
lclavicle -1.89342e-014 3.18055e-015
lhumerus -23.2851 9.02635 81.7338
lradius 23.2629
lwrist -12.3895
lhand -23.2737 -7.63399
lfingers 7.12502
lthumb 3.1788 22.3221
rfemur -11.1069 4.40409 23.0522
rtibia 36.0248
rfoot -38.8236 -28.0895
rtoes -8.29717
lfemur -17.3541 0.796212 -19.2601
ltibia 49.4764
lfoot -29.8459 15.1014
ltoes 0.299559
677
root 43.0186 14.9989 0.853458 898.28 -6.25642 -899.288
lowerback 7.96451 1.94789 1.8066
upperback 5.23545 2.2685 -0.799607
thorax 1.06052 1.00668 -1.99369
lowerneck 1.24136 9.19947 15.0678
upperneck 4.6539 12.7688 -11.8047
head 2.91162 6.42391 -5.54388
rclavicle -1.51076e-014 4.77083e-015
rhumerus -38.1748 -4.97484 -86.8407
rradius 35.4887
rwrist -25.96
rhand -25.341 0.446752
rfingers 7.12502
rthumb 1.18218 -29.5297
lclavicle -1.51076e-014 4.77083e-015
lhumerus -24.0181 10.6816 80.9887
lradius 22.4544
lwrist -13.8077
lhand -22.1389 -6.99321
lfingers 7.12502
lthumb 4.27467 22.9436
rfemur -10.9226 4.18785 23.2403
rtibia 36.4119
rfoot -40.9268 -28.4838
rtoes -5.41796
lfemur -17.254 4.26207 -19.9322
ltibia 49.636
lfoot -30.4116 15.8292
ltoes -3.66502
678
root 43.1165 14.9807 0.842325 898.237 -8.3936 -898.987
lowerback 7.85532 1.79974 1.79067
upperback 5.1868 2.08816 -0.614573
thorax 1.05294 0.920801 -1.77963
lowerneck 1.14482 8.9659 14.8013
upperneck 4.58447 12.4333 -11.707
head 2.8379 6.25144 -5.49547
rclavicle 4.90998e-014 -1.98785e-016
rhumerus -38.2542 -4.77304 -86.6986
rradius 35.5107
rwrist -26.0412
rhand -25.0906 0.416551
rfingers 7.12502
rthumb 1.42405 -29.5584
lclavicle 4.90998e-014 -1.98785e-016
lhumerus -24.6346 11.8193 80.378
lradius 21.6574
lwrist -13.3504
lhand -21.0747 -6.14157
lfingers 7.12502
lthumb 5.30218 23.7721
rfemur -10.834 4.18723 24.1416
rtibia 36.7421
rfoot -43.3759 -28.9172
rtoes -2.04122
lfemur -17.2741 6.9145 -19.9801
ltibia 49.7293
lfoot -30.4419 17.5611
ltoes -9.1498
